<svg xmlns="http://www.w3.org/2000/svg" viewBox="0 -0.5 33 33" shape-rendering="crispEdges">
    <path stroke="#ffeea4" d="M0 0h9M27 0h6M0 1h9M27 1h6M0 2h9M27 2h6M0 3h6M27 3h6M0 4h6M27 4h6M0 5h6M27 5h6M0 6h3M30 6h3M0 7h3M30 7h3M0 8h3M30 8h3M30 9h3M30 10h3M30 11h3" />
    <path stroke="#eec56a" d="M9 0h3M21 0h6M9 1h3M21 1h6M9 2h3M21 2h6M6 3h3M24 3h3M6 4h3M24 4h3M6 5h3M24 5h3M3 6h3M27 6h3M3 7h3M27 7h3M3 8h3M27 8h3M0 9h3M27 9h3M0 10h3M27 10h3M0 11h3M27 11h3M0 12h3M30 12h3M0 13h3M30 13h3M0 14h3M30 14h3" />
    <path stroke="#cd8b5a" d="M12 0h3M12 1h3M12 2h3M9 3h3M9 4h3M9 5h3M3 9h3M3 10h3M3 11h3M0 15h3M0 16h3M0 17h3" />
    <path stroke="#94624a" d="M15 0h6M15 1h6M15 2h6M21 3h3M21 4h3M21 5h3M6 6h3M24 6h3M6 7h3M24 7h3M6 8h3M24 8h3M3 12h3M27 12h3M3 13h3M27 13h3M3 14h3M27 14h3M0 18h3M0 19h3M0 20h3" />
    <path stroke="#393131" d="M12 3h9M12 4h9M12 5h9M9 6h3M21 6h3M9 7h3M21 7h3M9 8h3M21 8h3M0 21h3M0 22h3M0 23h3" />
    <path stroke="#41628b" d="M12 6h9M12 7h9M12 8h9M9 9h3M24 9h3M9 10h3M24 10h3M9 11h3M24 11h3M18 12h3M18 13h3M18 14h3M3 15h3M30 15h3M3 16h3M30 16h3M3 17h3M30 17h3M3 18h3M27 18h6M3 19h3M27 19h6M3 20h3M27 20h6M3 21h6M15 21h6M27 21h3M3 22h6M15 22h6M27 22h3M3 23h6M15 23h6M27 23h3" />
    <path stroke="#101010" d="M6 9h3M6 10h3M6 11h3M24 12h3M24 13h3M24 14h3M6 15h3M24 15h6M6 16h3M24 16h6M6 17h3M24 17h6M21 18h6M21 19h6M21 20h6M30 21h3M30 22h3M30 23h3M0 24h9M18 24h15M0 25h9M18 25h15M0 26h9M18 26h15M0 27h33M0 28h33M0 29h33M0 30h33M0 31h33M0 32h33" />
    <path stroke="#5a94d5" d="M12 9h3M21 9h3M12 10h3M21 10h3M12 11h3M21 11h3M21 21h6M21 22h6M21 23h6" />
    <path stroke="#8bbde6" d="M15 9h6M15 10h6M15 11h6" />
    <path stroke="#d54a52" d="M6 12h3M6 13h3M6 14h3" />
    <path stroke="#313962" d="M9 12h3M21 12h3M9 13h3M21 13h3M9 14h3M21 14h3M6 18h3M18 18h3M6 19h3M18 19h3M6 20h3M18 20h3M12 24h6M12 25h6M12 26h6" />
    <path stroke="#9c9cac" d="M12 12h3M12 13h3M12 14h3M9 15h3M9 16h3M9 17h3M15 18h3M15 19h3M15 20h3M12 21h3M12 22h3M12 23h3" />
    <path stroke="#626a8b" d="M15 12h3M15 13h3M15 14h3M18 15h3M18 16h3M18 17h3" />
    <path stroke="#ffffff" d="M12 15h3M12 16h3M12 17h3M12 18h3M12 19h3M12 20h3M9 21h3M9 22h3M9 23h3M9 24h3M9 25h3M9 26h3" />
    <path stroke="#e6e6f6" d="M15 15h3M15 16h3M15 17h3M9 18h3M9 19h3M9 20h3" />
    <path stroke="#ff7394" d="M21 15h3M21 16h3M21 17h3" />
</svg>
